<svg width="1600" height="1000" viewBox="0 0 1600 1000" fill="none" xmlns="http://www.w3.org/2000/svg">
  <g opacity="0.4">
    <path d="M72 120C230 52 412 48 560 146C688 231 821 265 980 228C1096 201 1224 122 1368 136C1454 145 1525 187 1580 238" stroke="white" stroke-width="1.2"/>
    <path d="M-20 318C176 252 335 284 472 370C610 457 762 495 945 453C1114 414 1241 298 1423 320C1503 330 1564 370 1626 422" stroke="white" stroke-width="1.2"/>
    <path d="M-10 620C170 572 327 610 480 710C634 811 804 848 970 810C1142 771 1288 658 1464 668C1531 672 1600 694 1656 732" stroke="white" stroke-width="1.2"/>
    <path d="M1160 34C1122 120 1130 198 1188 252C1237 297 1315 312 1388 294C1457 277 1524 234 1598 226" stroke="white" stroke-width="1"/>
    <path d="M222 722C280 664 350 635 428 646C495 655 551 697 573 759C591 812 582 873 546 930" stroke="white" stroke-width="1"/>
  </g>
</svg>
